<svg xmlns="http://www.w3.org/2000/svg" viewBox="0 0 77.67 77.67"><title>icon-regularizacao</title><g id="Camada_2" data-name="Camada 2"><g id="content"><line x1="21.34" y1="29.26" x2="21.34" y2="53.88" fill="none" stroke="#1d1d1b" stroke-miterlimit="10"/><line x1="33" y1="29.26" x2="33" y2="53.88" fill="none" stroke="#1d1d1b" stroke-miterlimit="10"/><line x1="44.67" y1="29.26" x2="44.67" y2="53.88" fill="none" stroke="#1d1d1b" stroke-miterlimit="10"/><line x1="56.33" y1="29.26" x2="56.33" y2="53.88" fill="none" stroke="#1d1d1b" stroke-miterlimit="10"/><line x1="77.67" y1="64.97" y2="64.97" fill="none" stroke="#1d1d1b" stroke-miterlimit="10"/><polygon points="15.46 28.88 62.23 28.88 62.23 23.82 38.86 12.7 15.46 23.81 15.46 28.88" fill="none" stroke="#1d1d1b" stroke-miterlimit="10"/><line x1="73.55" y1="58.5" x2="4.11" y2="58.5" fill="none" stroke="#1d1d1b" stroke-miterlimit="10"/><line x1="9.68" y1="44.72" x2="9.68" y2="53.88" fill="none" stroke="#1d1d1b" stroke-miterlimit="10"/><polyline points="16.5 38.23 5.29 38.23 5.29 44.19 16.5 44.19" fill="none" stroke="#1d1d1b" stroke-miterlimit="10"/><line x1="68" y1="44.72" x2="68" y2="53.88" fill="none" stroke="#1d1d1b" stroke-miterlimit="10"/><polyline points="61.17 38.23 72.38 38.23 72.38 44.19 61.17 44.19" fill="none" stroke="#1d1d1b" stroke-miterlimit="10"/><rect width="77.67" height="77.67" fill="none"/></g></g></svg>