<svg xmlns="http://www.w3.org/2000/svg" viewBox="0 0 77.67 77.67"><title>icon-consultoria</title><g id="Camada_2" data-name="Camada 2"><g id="content"><path d="M51.07,37.43V25C50.86,8.06,36,9.2,36,9.2S21.11,8.06,20.89,25V37.43" fill="none" stroke="#1d1d1b" stroke-miterlimit="10"/><path d="M27,26c0,7.05,4.27,13.92,9.08,13.92s8.56-6.84,8.56-13.9c0,0,.27-4.64-2.1-7.67,0,0-5.09,6.15-21.09,7.05" fill="none" stroke="#1d1d1b" stroke-miterlimit="10"/><path d="M25.89,43.94l-5.6,1.21s-6.71,1.32-7.6,7l-1,15.73" fill="none" stroke="#1d1d1b" stroke-miterlimit="10"/><polyline points="35.97 62.01 28.6 41.48 20.91 50.49 25.91 50.49" fill="none" stroke="#1d1d1b" stroke-miterlimit="10"/><polyline points="40.23 50.3 43.36 41.48 46.03 44.63" fill="none" stroke="#1d1d1b" stroke-miterlimit="10"/><polyline points="41.21 56.3 53.55 44.3 65.97 56.31" fill="none" stroke="#1d1d1b" stroke-miterlimit="10"/><polyline points="62.44 53.15 62.44 68.48 56.25 68.48 56.25 61 50.93 61 50.93 68.48 44.74 68.48 44.74 53.02" fill="none" stroke="#1d1d1b" stroke-miterlimit="10"/><rect width="77.67" height="77.67" fill="none"/></g></g></svg>