<svg xmlns="http://www.w3.org/2000/svg" viewBox="0 0 77.67 77.67"><title>icon-projetos</title><g id="Camada_2" data-name="Camada 2"><g id="content"><path d="M72.92,60.9V42a6.39,6.39,0,0,0-6.39-6.42V54.47a6.43,6.43,0,0,1,0,12.85H11.13a6.43,6.43,0,0,1,0-12.85V35.6A6.38,6.38,0,0,0,4.75,42V60.9" fill="none" stroke="#1d1d1b" stroke-miterlimit="10"/><line x1="11.3" y1="42.73" x2="18.75" y2="42.73" fill="none" stroke="#1d1d1b" stroke-miterlimit="10"/><line x1="58.92" y1="42.73" x2="66.37" y2="42.73" fill="none" stroke="#1d1d1b" stroke-miterlimit="10"/><polyline points="14.23 31.74 38.77 10.34 63.44 31.75" fill="none" stroke="#1d1d1b" stroke-miterlimit="10"/><polyline points="56.42 26.12 56.42 53.47 43.89 53.47 43.89 40.68 33.78 40.68 33.78 53.47 21.25 53.47 21.25 25.89" fill="none" stroke="#1d1d1b" stroke-miterlimit="10"/><rect width="77.67" height="77.67" fill="none"/></g></g></svg>