<svg xmlns="http://www.w3.org/2000/svg" viewBox="0 0 102.73 23.77"><title>naira-robert</title><g id="Camada_2" data-name="Camada 2"><g id="Camada_3" data-name="Camada 3"><path d="M7.65,11.08h.83V0h2.3V12.23h-5L3.15,1.15H2.31V12.23H0V0H5Z"/><path d="M19.36,12.23V11h-.24a3,3,0,0,1-2.76,1.47c-2.17,0-4-1.93-4-4.58s1.82-4.58,4-4.58a3,3,0,0,1,2.76,1.47h.24V3.56h2.17v8.67Zm0-4.33a2.39,2.39,0,1,0-4.76,0,2.39,2.39,0,1,0,4.76,0Z"/><path d="M30.09,4.82h.21c.33-1,1.06-1.29,2.17-1.29h.87v2H32.05a1.72,1.72,0,0,0-1.93,1.81v4.86h-2.2V3.56h2.17Z"/><path d="M40.83,12.23V11h-.24a3,3,0,0,1-2.76,1.47c-2.17,0-4-1.93-4-4.58s1.81-4.58,4-4.58a3,3,0,0,1,2.76,1.47h.24V3.56H43v8.67Zm0-4.33a2.39,2.39,0,1,0-4.75,0,2.39,2.39,0,1,0,4.75,0Z"/><path d="M68.83,8a4.8,4.8,0,0,1-.37,1.92,3.94,3.94,0,0,1-1,1.39,4.41,4.41,0,0,1-1.44.87,4.87,4.87,0,0,1-1.7.3,4.92,4.92,0,0,1-1.71-.3,4.41,4.41,0,0,1-1.44-.87,3.91,3.91,0,0,1-1-1.39A4.63,4.63,0,0,1,59.81,8V7.79a4.52,4.52,0,0,1,.37-1.89,4.08,4.08,0,0,1,1-1.41,4.41,4.41,0,0,1,1.44-.87,4.92,4.92,0,0,1,1.71-.3,4.87,4.87,0,0,1,1.7.3,4.41,4.41,0,0,1,1.44.87,4.11,4.11,0,0,1,1,1.41,4.68,4.68,0,0,1,.37,1.89Zm-4.51,2.38a2.42,2.42,0,0,0,.89-.16,2,2,0,0,0,.73-.45,2.11,2.11,0,0,0,.5-.73,2.47,2.47,0,0,0,.18-1V7.72a2.5,2.5,0,0,0-.18-1,2.16,2.16,0,0,0-.5-.72,2.21,2.21,0,0,0-.73-.46,2.64,2.64,0,0,0-.89-.15,2.6,2.6,0,0,0-.89.15,2.25,2.25,0,0,0-.74.46,2.14,2.14,0,0,0-.49.72,2.33,2.33,0,0,0-.19,1v.35a2.3,2.3,0,0,0,.19,1,2,2,0,0,0,1.23,1.18A2.38,2.38,0,0,0,64.32,10.38Z"/><path d="M72.51,12.23h-2.2V0h2.2V4.82h.32a2.64,2.64,0,0,1,1-1.11,3.32,3.32,0,0,1,1.7-.39,3.59,3.59,0,0,1,1.45.3,3.44,3.44,0,0,1,1.21.86A4.23,4.23,0,0,1,79,5.87a5.2,5.2,0,0,1,.31,1.87v.32A5.41,5.41,0,0,1,79,9.94a4.37,4.37,0,0,1-.8,1.39,3.28,3.28,0,0,1-1.2.86,3.88,3.88,0,0,1-1.49.29,3.61,3.61,0,0,1-1-.13,2.77,2.77,0,0,1-.76-.33,2.51,2.51,0,0,1-.54-.48,3.47,3.47,0,0,1-.37-.57h-.32Zm2.31-1.85a2.25,2.25,0,0,0,1.67-.64A2.36,2.36,0,0,0,77.13,8V7.79a2.39,2.39,0,0,0-.64-1.74,2.28,2.28,0,0,0-1.67-.63,2.25,2.25,0,0,0-1.67.65,2.39,2.39,0,0,0-.64,1.72V8a2.37,2.37,0,0,0,.64,1.72A2.22,2.22,0,0,0,74.82,10.38Z"/><path d="M93.16,4.82h.21a2,2,0,0,1,2.16-1.29h.88v2h-1.3a1.72,1.72,0,0,0-1.92,1.81v4.86H91V3.56h2.17Z"/><path d="M97.4,3.56V0h2.2V3.56h3.13v2.1H99.6V9.61c0,.35.16.52.47.52h2.34v2.1H98.74a1.33,1.33,0,0,1-1-.38,1.36,1.36,0,0,1-.37-1V3.56Z"/><rect x="23.62" y="0.49" width="2.2" height="1.78"/><rect x="23.62" y="3.56" width="2.2" height="8.67"/><path d="M54.76,0c2.29,0,3.81,1.4,3.81,3.48a2.84,2.84,0,0,1-1.89,2.79v.25a1.53,1.53,0,0,1,1.54,1.66v4.05H55.91V8.56A.84.84,0,0,0,55,7.62H51.76v4.61H49.45V0Zm-3,5.45h2.76a1.57,1.57,0,0,0,1.74-1.64,1.57,1.57,0,0,0-1.74-1.64H51.76Z"/><path d="M89,5.9a4.08,4.08,0,0,0-1-1.41,4.35,4.35,0,0,0-1.45-.87,5,5,0,0,0-3.4,0,4.21,4.21,0,0,0-1.44.87,4.11,4.11,0,0,0-1,1.41,4.52,4.52,0,0,0-.37,1.89V8a4.63,4.63,0,0,0,.37,1.92,3.94,3.94,0,0,0,1,1.39,4.21,4.21,0,0,0,1.44.87,5,5,0,0,0,3.4,0,4.35,4.35,0,0,0,1.45-.87,3.91,3.91,0,0,0,1-1.39,3.43,3.43,0,0,0,.21-.64H86.89a2.21,2.21,0,0,1-.36.49,2.08,2.08,0,0,1-.74.45,2.56,2.56,0,0,1-1.78,0,2,2,0,0,1-.73-.45,2.11,2.11,0,0,1-.5-.73,1.9,1.9,0,0,1-.14-.48h6.74a5,5,0,0,0,0-.56V7.79A4.52,4.52,0,0,0,89,5.9ZM83.28,6A2.21,2.21,0,0,1,84,5.57a2.72,2.72,0,0,1,1.78,0,2.25,2.25,0,0,1,.74.46,2.14,2.14,0,0,1,.49.72c0,.09.07.18.1.27H82.68c0-.09.06-.18.1-.27A2.16,2.16,0,0,1,83.28,6Z"/><path d="M15.38,21.59h-2l-.34,1.15h-.59l1.4-4.61h1l1.39,4.61h-.59Zm-1-3.22-.8,2.71h1.67l-.79-2.71Z"/><path d="M25.07,22.74h-.55V21.2a.4.4,0,0,0-.08-.26.32.32,0,0,0-.28-.1H22.73v1.9h-.56V18.13h1.65a1.65,1.65,0,0,1,.62.1,1.37,1.37,0,0,1,.44.27,1.15,1.15,0,0,1,.26.4,1.28,1.28,0,0,1,.09.48v.2a1.09,1.09,0,0,1-.14.51.91.91,0,0,1-.44.4v.08a.51.51,0,0,1,.31.15.52.52,0,0,1,.11.36Zm-2.34-2.41h1a1,1,0,0,0,.69-.2.76.76,0,0,0,.23-.59v-.12a.74.74,0,0,0-.23-.56.94.94,0,0,0-.69-.22h-1Z"/><path d="M31.25,19.92a2.08,2.08,0,0,1,.43-1.39,1.7,1.7,0,0,1,2.39,0,2.08,2.08,0,0,1,.43,1.39v1a2.16,2.16,0,0,1-.36,1.32,1.4,1.4,0,0,1-1,.55v.28c0,.13.06.19.18.19h.55v.48h-.73a.48.48,0,0,1-.37-.15.51.51,0,0,1-.14-.36v-.44a1.42,1.42,0,0,1-1-.55A2.16,2.16,0,0,1,31.25,21Zm1.63,2.4a.92.92,0,0,0,.8-.37,1.79,1.79,0,0,0,.26-1V20a1.84,1.84,0,0,0-.26-1,1,1,0,0,0-1.61,0,1.84,1.84,0,0,0-.26,1v.95a1.79,1.79,0,0,0,.26,1A.93.93,0,0,0,32.88,22.32Z"/><path d="M41.09,18.13v3.06a1.22,1.22,0,0,0,.26.84,1.17,1.17,0,0,0,1.54,0,1.22,1.22,0,0,0,.26-.84V18.13h.55v3.06a1.66,1.66,0,0,1-.42,1.22,1.81,1.81,0,0,1-2.32,0,1.66,1.66,0,0,1-.42-1.22V18.13Z"/><path d="M49.9,18.13h2.93v.51H51.64v3.59h1.19v.51H49.9v-.51h1.19V18.64H49.9Z"/><path d="M59,18.13h3.24v.51H60.88v4.1h-.55v-4.1H59Z"/><path d="M68.45,18.13h2.8v.51H69v1.53h2.2v.52H69v1.54h2.28v.51H68.45Z"/><path d="M77.47,18.13h3.25v.51H79.37v4.1h-.55v-4.1H77.47Z"/><path d="M89.33,21.59h-2L87,22.74h-.6l1.4-4.61h1l1.4,4.61h-.6Zm-1-3.22-.8,2.71h1.68l-.8-2.71Z"/></g></g></svg>