<svg xmlns="http://www.w3.org/2000/svg" viewBox="0 0 420 187.69"><g id="Layer_2" data-name="Layer 2"><g id="Layer_4" data-name="Layer 4"><polygon points="0 0.64 108.99 130.08 0 130.08 0 0.64"/><rect x="108.99" y="0.64" width="59.33" height="129.44"/><path d="M220.29,52.8h-9.06V.64h9.06l26.69,41h-2.22V.64h9V52.8h-9l-26.68-41h2.21Z"/><path d="M297.42,52.8h-8.49V48a11,11,0,0,1-5,4.17,16.91,16.91,0,0,1-7.24,1.54,15.92,15.92,0,0,1-9-2.46,15.73,15.73,0,0,1-5.71-6.75,21.71,21.71,0,0,1-1.82-9.77,21.64,21.64,0,0,1,2.14-9.63,15.58,15.58,0,0,1,5.74-6.35,15.9,15.9,0,0,1,8.6-2.29A16.22,16.22,0,0,1,284,18.16,11.46,11.46,0,0,1,289.15,23l.42-5.42h7.85ZM278.73,46A9.72,9.72,0,0,0,284,44.56a9.27,9.27,0,0,0,3.46-3.82,12.26,12.26,0,0,0,1.22-5.56,12.46,12.46,0,0,0-1.22-5.64A9,9,0,0,0,284,25.76a10,10,0,0,0-5.24-1.36,9.6,9.6,0,0,0-5.25,1.39,9.22,9.22,0,0,0-3.35,3.82A12.67,12.67,0,0,0,269,35.18a12.66,12.66,0,0,0,1.18,5.56,9.22,9.22,0,0,0,3.35,3.82A9.52,9.52,0,0,0,278.73,46Z"/><path d="M309.69,10.35A4.91,4.91,0,0,1,306,8.85a5.09,5.09,0,0,1-1.46-3.71A5,5,0,0,1,306,1.5a5.2,5.2,0,0,1,7.31,0,5,5,0,0,1,1.5,3.64,5,5,0,0,1-1.5,3.71A5,5,0,0,1,309.69,10.35ZM305.34,52.8V17.55h8.71V52.8Z"/><path d="M343.73,17.41V25H340.3A9.51,9.51,0,0,0,333,27.76q-2.61,2.77-2.61,7.92V52.8h-8.7V17.62h8l.64,5.78h-.71A7,7,0,0,1,332.45,19a11.77,11.77,0,0,1,5.28-1.92A16.31,16.31,0,0,1,343.73,17.41Z"/><path d="M382.68,52.8h-8.49V48a11,11,0,0,1-5,4.17A16.91,16.91,0,0,1,362,53.73,15.94,15.94,0,0,1,353,51.27a15.73,15.73,0,0,1-5.71-6.75,21.84,21.84,0,0,1-1.82-9.77,21.64,21.64,0,0,1,2.14-9.63,15.65,15.65,0,0,1,5.74-6.35,15.93,15.93,0,0,1,8.6-2.29,16.26,16.26,0,0,1,7.32,1.68,11.39,11.39,0,0,1,5.1,4.81l.43-5.42h7.84ZM364,46a9.7,9.7,0,0,0,5.24-1.39,9.29,9.29,0,0,0,3.47-3.82,12.39,12.39,0,0,0,1.21-5.56,12.59,12.59,0,0,0-1.21-5.64,9,9,0,0,0-3.47-3.78A10,10,0,0,0,364,24.4a9.59,9.59,0,0,0-5.24,1.39,9.25,9.25,0,0,0-3.36,3.82,12.67,12.67,0,0,0-1.17,5.57,12.65,12.65,0,0,0,1.17,5.56,9.25,9.25,0,0,0,3.36,3.82A9.51,9.51,0,0,0,364,46Z"/><path d="M220.36,130.18h-9.13V78h20.05q9.27.08,14.06,4.28t4.78,12a16.65,16.65,0,0,1-2.47,9.25,14,14,0,0,1-6.88,5.53l9.63,21.12H240.13l-8.57-19.63h-11.2Zm0-44v16.41h10.92q4.78,0,7-2.35a8.3,8.3,0,0,0,2.21-5.93,8,8,0,0,0-2.21-5.84q-2.21-2.3-7-2.29Z"/><path d="M252.47,112.48a19.74,19.74,0,0,1,2.28-9.6,16.76,16.76,0,0,1,6.43-6.56,20.68,20.68,0,0,1,19.3,0,16.77,16.77,0,0,1,6.38,6.56,21.27,21.27,0,0,1,0,19.2,16.77,16.77,0,0,1-6.38,6.56,20.68,20.68,0,0,1-19.3,0,16.76,16.76,0,0,1-6.43-6.56A19.72,19.72,0,0,1,252.47,112.48Zm8.78,0a12.76,12.76,0,0,0,1.18,5.6,8.86,8.86,0,0,0,3.35,3.82,10.12,10.12,0,0,0,10.1,0,9,9,0,0,0,3.31-3.82,14,14,0,0,0,0-11.24,9.1,9.1,0,0,0-3.31-3.78,10.12,10.12,0,0,0-10.1,0,9,9,0,0,0-3.35,3.78A12.72,12.72,0,0,0,261.25,112.48Z"/><path d="M302.35,130.18H294.5V77.09H303v23a11.37,11.37,0,0,1,5.1-4.64,16.79,16.79,0,0,1,7.46-1.64,15.34,15.34,0,0,1,8.63,2.39,15.69,15.69,0,0,1,5.64,6.67,21.83,21.83,0,0,1,1.85,9.92,20.71,20.71,0,0,1-2.1,9.49,15.91,15.91,0,0,1-5.85,6.45,16.39,16.39,0,0,1-8.82,2.32,15.33,15.33,0,0,1-7.2-1.71,11,11,0,0,1-4.85-4.71Zm1-17.77a12.49,12.49,0,0,0,1.22,5.6,8.85,8.85,0,0,0,3.42,3.78,10,10,0,0,0,5.21,1.32,9.73,9.73,0,0,0,5.24-1.35,9,9,0,0,0,3.36-3.79,13.71,13.71,0,0,0,0-11.13,9.15,9.15,0,0,0-3.36-3.81A10.52,10.52,0,0,0,308,103a9.34,9.34,0,0,0-3.42,3.78A12.2,12.2,0,0,0,303.34,112.41Z"/><path d="M334.74,112.55a21.36,21.36,0,0,1,2.14-9.88,15.8,15.8,0,0,1,6-6.49,16.92,16.92,0,0,1,8.92-2.32,16.12,16.12,0,0,1,8.81,2.32,15.31,15.31,0,0,1,5.68,6.49,22.35,22.35,0,0,1,2,9.74v2.64H343.16a9,9,0,0,0,2.46,6.46,8.7,8.7,0,0,0,6.31,2.24,10,10,0,0,0,5.46-1.46,6.42,6.42,0,0,0,3-3.67h8.07a15.08,15.08,0,0,1-3.07,6.49,16,16,0,0,1-5.82,4.39,18.65,18.65,0,0,1-7.81,1.6,16.79,16.79,0,0,1-8.85-2.32,15.8,15.8,0,0,1-6-6.49A21,21,0,0,1,334.74,112.55Zm8.56-3.07h16.34a9.17,9.17,0,0,0-1.07-4.63,7.13,7.13,0,0,0-2.89-2.82,8.67,8.67,0,0,0-4.17-1,8.17,8.17,0,0,0-5.86,2.18A8.44,8.44,0,0,0,343.3,109.48Z"/><path d="M395.74,94.78v7.57h-3.42a9.56,9.56,0,0,0-7.32,2.78q-2.6,2.79-2.6,7.92v17.13h-8.71V95h8l.64,5.78h-.72a7,7,0,0,1,2.86-4.39,11.81,11.81,0,0,1,5.28-1.93A16.48,16.48,0,0,1,395.74,94.78Z"/><path d="M397.88,94.93H420v7.2H397.88Zm15.34,35.25h-8.56V83.94h8.56Z"/><path d="M284.26,180.44h-2.47l9-24.62h3L303,180.44h-2.58l-2.34-6.53H286.67Zm7.88-21.15-4.71,12.52h9.87l-4.58-12.52c0-.13-.1-.31-.15-.51a3.78,3.78,0,0,0-.16-.48q0,.16-.12.48C292.24,159,292.18,159.16,292.14,159.29Z"/><path d="M314.79,163.59v2.06h-1.58a4.36,4.36,0,0,0-3.52,1.45,5.77,5.77,0,0,0-1.22,3.85v9.49H306.1V163.8h2.2l.17,3.06h-.31a4.07,4.07,0,0,1,1.31-2.2,5.1,5.1,0,0,1,2.35-1.12A7.11,7.11,0,0,1,314.79,163.59Z"/><path d="M333,187.69h-2.27V177.17a6.17,6.17,0,0,1-2.53,2.74,7.57,7.57,0,0,1-3.8.94,7.29,7.29,0,0,1-4.16-1.15,7.4,7.4,0,0,1-2.63-3.15,10.67,10.67,0,0,1-.91-4.5,10.78,10.78,0,0,1,.95-4.47,7.17,7.17,0,0,1,2.63-3.09,7.27,7.27,0,0,1,4.12-1.14,7.78,7.78,0,0,1,3.73.93,5.85,5.85,0,0,1,2.63,3l.21-3.47h2Zm-8.22-9a5.42,5.42,0,0,0,3.09-.86,5.5,5.5,0,0,0,1.95-2.35,9,9,0,0,0,0-6.81,5.36,5.36,0,0,0-1.95-2.34,6.12,6.12,0,0,0-6.19,0,5.3,5.3,0,0,0-1.92,2.34,9.24,9.24,0,0,0,0,6.81,5.16,5.16,0,0,0,5,3.21Z"/><path d="M344.05,180.85a5.52,5.52,0,0,1-4.5-1.86,7.36,7.36,0,0,1-1.55-4.88V163.76h2.41v9.6c0,2,.41,3.41,1.24,4.19a4.39,4.39,0,0,0,3.16,1.17,4.64,4.64,0,0,0,3.76-1.58,6.87,6.87,0,0,0,1.33-4.51V163.8h2.37v16.64h-2.2l-.14-2.68a5.23,5.23,0,0,1-2.3,2.23A7.54,7.54,0,0,1,344.05,180.85Z"/><path d="M358.52,159.05a1.57,1.57,0,0,1-1.18-.48,1.62,1.62,0,0,1-.47-1.17,1.66,1.66,0,0,1,.47-1.2,1.7,1.7,0,0,1,2.37,0,1.66,1.66,0,0,1,.47,1.2,1.62,1.62,0,0,1-.47,1.17A1.57,1.57,0,0,1,358.52,159.05Zm-1.16,21.39V163.8h2.37v16.64Z"/><path d="M362.79,163.8h9v2h-9Zm5.67,16.64h-2.34v-21.9h2.34Z"/><path d="M373.38,172.12a10.29,10.29,0,0,1,1-4.66,7.15,7.15,0,0,1,2.73-3,7.66,7.66,0,0,1,4.06-1.07,7.38,7.38,0,0,1,4,1.07,7,7,0,0,1,2.63,3,10.65,10.65,0,0,1,.93,4.65v1.1h-13a6.17,6.17,0,0,0,1.71,4.2,5.25,5.25,0,0,0,3.76,1.41,6.12,6.12,0,0,0,3.4-.93,4.1,4.1,0,0,0,1.86-2.41h2.3a7,7,0,0,1-4.16,4.75,9,9,0,0,1-3.43.65,7.68,7.68,0,0,1-4.08-1.08,7.2,7.2,0,0,1-2.73-3A10.4,10.4,0,0,1,373.38,172.12Zm2.37-.66h10.59a7.83,7.83,0,0,0-.74-3.47,4.52,4.52,0,0,0-1.88-2,5.53,5.53,0,0,0-2.61-.62,5.13,5.13,0,0,0-3.78,1.52A6.34,6.34,0,0,0,375.75,171.46Z"/><path d="M390.46,163.8h9v2h-9Zm5.68,16.64H393.8v-21.9h2.34Z"/><path d="M417.42,180.44h-2.27v-3.27a6.11,6.11,0,0,1-2.53,2.74,7.47,7.47,0,0,1-3.76.94,7.12,7.12,0,0,1-6.83-4.3,11.68,11.68,0,0,1,.05-9,7.15,7.15,0,0,1,6.78-4.23,7.68,7.68,0,0,1,3.71.93,6.07,6.07,0,0,1,2.65,3l.13-3.47h2.07Zm-8.22-1.72a5.49,5.49,0,0,0,3.13-.86,5.28,5.28,0,0,0,1.92-2.36,8.25,8.25,0,0,0,.66-3.38,8.35,8.35,0,0,0-.66-3.42,5.17,5.17,0,0,0-1.92-2.34,5.56,5.56,0,0,0-3.13-.84,5.44,5.44,0,0,0-3.06.84,5.27,5.27,0,0,0-1.94,2.34,8.19,8.19,0,0,0-.67,3.42,8.09,8.09,0,0,0,.67,3.38,5.2,5.2,0,0,0,5,3.22Z"/></g></g></svg>